<?xml version="1.0" encoding="UTF-8" standalone="no"?>
<!DOCTYPE svg PUBLIC "-//W3C//DTD SVG 1.1//EN" "http://www.w3.org/Graphics/SVG/1.1/DTD/svg11.dtd">
<svg width="100%" height="100%" viewBox="0 0 423 423" version="1.1" xmlns="http://www.w3.org/2000/svg" xmlns:xlink="http://www.w3.org/1999/xlink" xml:space="preserve" xmlns:serif="http://www.serif.com/" style="fill-rule:evenodd;clip-rule:evenodd;stroke-linejoin:round;stroke-miterlimit:2;">
    <g transform="matrix(1,0,0,1,-10800,-14755.6)">
        <g transform="matrix(8.33333,0,0,8.33333,10816.7,14738.9)">
            <path d="M28.774,47.963C27.706,48.244 27.068,49.338 27.349,50.406C27.631,51.474 28.725,52.112 29.793,51.831L28.774,47.963ZM0,16.973L-2,16.973C-2,18.078 -1.105,18.973 0,18.973L0,16.973ZM2,6.333C2,5.229 1.105,4.333 0,4.333C-1.105,4.333 -2,5.229 -2,6.333L2,6.333ZM10.36,18.973C11.465,18.973 12.36,18.078 12.36,16.973C12.36,15.869 11.465,14.973 10.36,14.973L10.36,18.973ZM29.283,49.897L29.793,51.831C40.658,48.969 48.667,39.092 48.667,27.333L44.667,27.333C44.667,37.228 37.928,45.551 28.774,47.963L29.283,49.897ZM44.667,27.333L48.667,27.333C48.667,13.354 37.416,2 23.333,2L23.333,6C35.197,6 44.667,15.553 44.667,27.333ZM23.333,6L23.333,2C14.958,2 8.687,5.499 4.549,8.951C2.482,10.676 0.932,12.4 -0.105,13.698C-0.625,14.348 -1.018,14.895 -1.286,15.286C-1.42,15.482 -1.523,15.639 -1.594,15.751C-1.63,15.807 -1.658,15.852 -1.678,15.884C-1.688,15.901 -1.697,15.914 -1.703,15.924L-1.715,15.944C-1.715,15.945 -1.716,15.946 0,16.973C1.716,18.001 1.715,18.002 1.715,18.002L1.714,18.005C1.713,18.005 1.714,18.005 1.714,18.004C1.716,18.001 1.719,17.996 1.724,17.988C1.734,17.972 1.752,17.943 1.776,17.904C1.826,17.826 1.906,17.705 2.015,17.546C2.232,17.227 2.568,16.761 3.02,16.195C3.926,15.06 5.291,13.541 7.112,12.022C10.75,8.987 16.146,6 23.333,6ZM-2,16.973L2,16.973L2,6.333L-2,6.333L-2,16.973ZM0,14.973L0,18.973L4.69,18.973L4.69,14.973L0,14.973ZM4.69,14.973L4.69,18.973L10.36,18.973L10.36,14.973L4.69,14.973Z" style="fill:rgb(106,47,247);fill-rule:nonzero;"/>
        </g>
        <g transform="matrix(8.33333,0,0,8.33333,10816.7,14933.3)">
            <path d="M2,4C2,2.895 1.105,2 0,2C-1.105,2 -2,2.895 -2,4L2,4ZM23.333,29.333C24.438,29.333 25.333,28.438 25.333,27.333C25.333,26.229 24.438,25.333 23.333,25.333L23.333,29.333ZM-1.786,7.306C-1.643,8.402 -0.639,9.174 0.457,9.03C1.552,8.887 2.324,7.884 2.181,6.788L-1.786,7.306ZM3.619,12.164C3.196,11.144 2.026,10.66 1.006,11.083C-0.015,11.507 -0.498,12.677 -0.075,13.697L3.619,12.164ZM3.237,19.422C3.911,20.297 5.166,20.462 6.042,19.789C6.918,19.115 7.082,17.86 6.409,16.984L3.237,19.422ZM10.349,20.925C9.474,20.251 8.218,20.416 7.545,21.291C6.872,22.167 7.036,23.423 7.912,24.096L10.349,20.925ZM13.636,27.408C14.656,27.832 15.827,27.348 16.25,26.328C16.673,25.308 16.19,24.137 15.169,23.714L13.636,27.408ZM20.545,25.153C19.45,25.01 18.446,25.782 18.303,26.877C18.16,27.972 18.932,28.976 20.027,29.119L20.545,25.153ZM2,4L-2,4C-2,5.12 -1.927,6.223 -1.786,7.306L2.181,6.788C2.062,5.877 2,4.946 2,4ZM1.772,12.931L-0.075,13.697C0.78,15.757 1.898,17.679 3.237,19.422L6.409,16.984C5.28,15.515 4.338,13.897 3.619,12.164L1.772,12.931ZM10.349,20.925L7.912,24.096C9.654,25.435 11.576,26.554 13.636,27.408L15.169,23.714C13.437,22.995 11.818,22.053 10.349,20.925ZM20.545,25.153L20.027,29.119C21.11,29.261 22.214,29.333 23.333,29.333L23.333,25.333C22.387,25.333 21.457,25.272 20.545,25.153Z" style="fill:rgb(106,47,247);fill-rule:nonzero;"/>
        </g>
    </g>
</svg>
